PathFileType	4	(X/Y/Z)	pose_F01_0-84.trc
DataRate	CameraRate	NumFrames	NumMarkers	Units	OrigDataRate	OrigDataStartFrame	OrigNumFrames
30	30	6	21	m	30	12	84
Frame#	Time	CHip			RHip			RKnee			RAnkle			RBigToe			RSmallToe			RHeel			LHip			LKnee			LAnkle			LBigToe			LSmallToe			LHeel			Neck			Nose			RShoulder			RElbow			RWrist			LShoulder			LElbow			LWrist			
		X1	Y1	Z1	X2	Y2	Z2	X3	Y3	Z3	X4	Y4	Z4	X5	Y5	Z5	X6	Y6	Z6	X7	Y7	Z7	X8	Y8	Z8	X9	Y9	Z9	X10	Y10	Z10	X11	Y11	Z11	X12	Y12	Z12	X13	Y13	Z13	X14	Y14	Z14	X15	Y15	Z15	X16	Y16	Z16	X17	Y17	Z17	X18	Y18	Z18	X19	Y19	Z19	X20	Y20	Z20	X21	Y21	Z21	
12	0.4	-0.23400653145063557	1.8324222980200402	-0.5472224777761985	-0.2515718320663412	1.8293406072305638	-0.48829973218990164	-0.23832916481017732	1.703061985270605	-0.49388607574737636				-0.20782546371075883	1.5642272232312384	-0.5531724666003545							-0.21706914197779306	1.8356327753052892	-0.6125189165638554	-0.22518845719302497	1.6992749656380564	-0.6040671690375968	-0.21877205479485998	1.5611925147118815	-0.5983298640220672	-0.22982910527931338	1.5302747628678564	-0.6609008338662282	-0.21746515502785516	1.5386696701808007	-0.6697711359418098	-0.21065346954747421	1.5596048939244211	-0.5721166005697511	-0.22466556761011652	1.982873566188009	-0.5657236849262652	-0.21158463729727556	2.0468191151119948	-0.667483096038092	-0.25044344791647216	1.9919455248720055	-0.48430410108001803	-0.2765809659370707	1.9123314481844018	-0.43122084599653765	-0.29852103774032673	1.8440557514944738	-0.4337903685990235	-0.19663470036857653	1.9829029171705876	-0.6405378122026515	-0.19371865938975102	1.9048406360995565	-0.6643907371780696	-0.19741781026858235	1.8331702051576018	-0.6915651407040578
13	0.43333333333333335	-0.23723245377230773	1.8266345587097692	-0.5386002579724637	-0.25481859738336954	1.8221047396028425	-0.47951760256530407	-0.23832916481017732	1.703061985270605	-0.49388607574737636				-0.20782546371075883	1.5642272232312384	-0.5531724666003545							-0.2155343314110399	1.8309230327167483	-0.5970638849896048	-0.22439733946295987	1.7003098307022293	-0.6007936964247285	-0.21658942985231186	1.5611817129817598	-0.6005086542496595	-0.2275452660561925	1.53003750555809	-0.6631278778031106	-0.21524291550721428	1.5388319612563095	-0.6719803810791661	-0.20764720804823006	1.561730924702229	-0.5704143346691295	-0.22879676462142406	1.983585486816444	-0.5525847261832407	-0.21338880040529595	2.044025479771919	-0.65380015013407	-0.2524721944671607	1.9890482416234379	-0.47313490674912884	-0.27478167693037653	1.9094542414845392	-0.4328800146464522	-0.2945826260292834	1.8378812564536626	-0.4372348442655711	-0.19713691996476906	1.9825270862542979	-0.6320871473855576	-0.1965249551854671	1.9027993755724932	-0.6532660062943461	-0.20013842181900277	1.8309669675033715	-0.6806980305668343
14	0.4666666666666667	-0.23578277321069105	1.8278495908430474	-0.5321449470831993	-0.2533119798896005	1.8250363588771636	-0.4730715249436407	-0.23832916481017732	1.703061985270605	-0.49388607574737636				-0.20782546371075883	1.5642272232312384	-0.5531724666003545							-0.21691072786018242	1.8297963825397465	-0.5914595483684059	-0.2214826878790806	1.7038194427757558	-0.5998045570029513	-0.21865174925980316	1.5639334431739982	-0.5987372137050737	-0.22658942851499705	1.5340963350383672	-0.6651022251332764	-0.21530878190779146	1.543544054022998	-0.6770220325141005	-0.2046409465489859	1.5638569554800372	-0.5687120687685079	-0.22703813562387987	1.982734526281862	-0.5377098732822788	-0.21455115979261508	2.04460383175955	-0.6484189721274238	-0.25153063635841105	1.9863887891577798	-0.46946303886127344	-0.2731007425841634	1.9029952389900764	-0.43404166755617324	-0.28756143769300613	1.827331265867462	-0.43595520005779476	-1.4950267424514339	1.8864170607619462	0.7633543255594626	-0.19893557309241722	1.9034461331599957	-0.6423374766846068	-0.20568891986538815	1.8273690167393744	-0.6701927299887933
15	0.5	-0.23258928416810098	1.8263443828600452	-0.5219775462240202	-0.24711775571622727	1.8207646494522398	-0.4615008762981537	-0.23832916481017732	1.703061985270605	-0.49388607574737636				-0.20782546371075883	1.5642272232312384	-0.5531724666003545							-0.2160712417213456	1.8287481774902885	-0.5877138177882066	-0.21872609623749026	1.701804401317878	-0.5941505689431648	-0.2138217909845628	1.5721389383307551	-0.595929601538634	-0.21753969240822743	1.5399927958028417	-0.6745587173465633	-0.20826218509288755	1.548196645760176	-0.684562975250652	-0.20163468504974175	1.5659829862578454	-0.5670098028678864	-0.22614915936595842	1.9835882590572516	-0.5347977242263963	-0.2128275521521768	2.045089419687549	-0.6422035525339438	-0.25142521919429195	1.9849591992999243	-0.46891734027860893	-0.26838946286204923	1.9033391555508299	-0.4354509524069665	-0.2783179751493825	1.8267880186028542	-0.44680398929529486	-0.20001421080268444	1.983330679869038	-0.6042290806301902	-0.19444319652418315	1.9029785272461273	-0.6263206897120613	-0.20313069490852587	1.8372731488133567	-0.6527178842533141
16	0.5333333333333333	-0.22827795144295995	1.829538412783858	-0.5181675344149709	-0.24153666558002002	1.8236422956778782	-0.4630569143903081	-0.23832916481017732	1.703061985270605	-0.49388607574737636				-0.20782546371075883	1.5642272232312384	-0.5531724666003545							-0.21204171746098496	1.8331051699326586	-0.5753105395676539	-0.21532318411256285	1.7056034993483533	-0.5937260132901145	-0.20899183270932242	1.5803444334875119	-0.5931219893721943	-0.21558757974084602	1.5472079528528293	-0.6730075040825785	-0.20647363294516258	1.5607382446439837	-0.6793576578559636	-0.1986284235504976	1.5681090170356535	-0.5653075369672648	-0.22411324001338984	1.9836671445988583	-0.536801045677393	-0.21487188053056597	2.0450103798068495	-0.6399315462418196	-0.24936995003092724	1.9837373253039419	-0.4706491484298677	-0.2668835653556912	1.8960330542275938	-0.43949758708095904	-0.2705431472106234	1.8198379951719055	-0.4668377701874329	-0.19624599010452964	1.9842661502020709	-0.6005630163310796	-0.19549301942170735	1.9066512941170033	-0.6211671597222941	-0.2001600522033609	1.8371271552901682	-0.6434010232514333
17	0.5666666666666667	-0.22618769859355844	1.8296561835550162	-0.5205388027744781	-0.2416067687542696	1.8256697354363542	-0.4633998604835403	-0.23832916481017732	1.703061985270605	-0.49388607574737636				-0.20782546371075883	1.5642272232312384	-0.5531724666003545							-0.20796828922323599	1.8340667846123555	-0.5797122237454355	-0.20844995603286223	1.7072876845552116	-0.6095354604577146	-0.20416187443408207	1.5885499286442688	-0.5903143772057545	-0.207927579154554	1.5569434741156944	-0.6650805422093242	-0.19813216240084566	1.5698829632847995	-0.6716561217015535	-0.19562216205125343	1.5702350478134617	-0.5636052710666432	-0.2231126910391757	1.9836822260023579	-0.5339640364685445	-0.21746306694485334	2.0440173265277313	-0.629378557067262	-0.24947430113082825	1.9847393573783751	-0.471164206498744	-0.26325792192886943	1.8963293199337201	-0.4440917023309857	-0.267977164600256	1.8289883129035671	-0.4841803825977833	-0.19103180076088555	1.9860018710369456	-0.6018635816115641	-0.1924643229045527	1.9090266012323704	-0.6201755676170728	-0.1940556694539363	1.8423624683916398	-0.6416054928719724
